<svg id="visual" viewBox="0 0 960 540" width="960" height="540" xmlns="http://www.w3.org/2000/svg" xmlns:xlink="http://www.w3.org/1999/xlink" version="1.1"><rect x="0" y="0" width="960" height="540" fill="#fff"></rect><path d="M0 204L8.5 195.3C17 186.7 34 169.3 50.8 166.7C67.7 164 84.3 176 101.2 188.8C118 201.7 135 215.3 151.8 212.8C168.7 210.3 185.3 191.7 202.2 193.5C219 195.3 236 217.7 252.8 216C269.7 214.3 286.3 188.7 303.2 181.2C320 173.7 337 184.3 353.8 194.8C370.7 205.3 387.3 215.7 404.2 223.3C421 231 438 236 454.8 237.8C471.7 239.7 488.3 238.3 505.2 227.3C522 216.3 539 195.7 555.8 183.3C572.7 171 589.3 167 606.2 172.3C623 177.7 640 192.3 656.8 202C673.7 211.7 690.3 216.3 707.2 218.2C724 220 741 219 757.8 207.7C774.7 196.3 791.3 174.7 808.2 170.2C825 165.7 842 178.3 858.8 183.2C875.7 188 892.3 185 909.2 184.8C926 184.7 943 187.3 951.5 188.7L960 190L960 0L951.5 0C943 0 926 0 909.2 0C892.3 0 875.7 0 858.8 0C842 0 825 0 808.2 0C791.3 0 774.7 0 757.8 0C741 0 724 0 707.2 0C690.3 0 673.7 0 656.8 0C640 0 623 0 606.2 0C589.3 0 572.7 0 555.8 0C539 0 522 0 505.2 0C488.3 0 471.7 0 454.8 0C438 0 421 0 404.2 0C387.3 0 370.7 0 353.8 0C337 0 320 0 303.2 0C286.3 0 269.7 0 252.8 0C236 0 219 0 202.2 0C185.3 0 168.7 0 151.8 0C135 0 118 0 101.2 0C84.3 0 67.7 0 50.8 0C34 0 17 0 8.5 0L0 0Z" fill="#00b0f0" stroke-linecap="round" stroke-linejoin="miter"></path></svg>